HIERARCHY
ROOT mixamorig:Hips
{
	OFFSET 0.000000 201.639420 0.000000
	CHANNELS 6 Xposition Yposition Zposition Xrotation Yrotation Zrotation
	JOINT mixamorig:Spine
	{
		OFFSET 0.006200 19.524994 -2.481800
		CHANNELS 3 Xrotation Yrotation Zrotation
		JOINT mixamorig:Spine1
		{
			OFFSET -0.000900 22.835007 -2.825400
			CHANNELS 3 Xrotation Yrotation Zrotation
			JOINT mixamorig:Spine2
			{
				OFFSET -0.020600 26.552490 -3.193300
				CHANNELS 3 Xrotation Yrotation Zrotation
				JOINT mixamorig:Neck
				{
					OFFSET -0.060000 30.701813 1.352200
					CHANNELS 3 Xrotation Yrotation Zrotation
					JOINT mixamorig:Head
					{
						OFFSET -0.087200 22.547607 3.670900
						CHANNELS 3 Xrotation Yrotation Zrotation
						JOINT mixamorig:HeadTop_End
						{
							OFFSET -0.830600 40.355194 7.893500
							CHANNELS 3 Xrotation Yrotation Zrotation
							End Site
							{
								OFFSET 0.000000 30.592346 0.000000
							}
						}
						JOINT mixamorig:RightEye
						{
							OFFSET -6.302100 18.118591 16.197100
							CHANNELS 3 Xrotation Yrotation Zrotation
							End Site
							{
								OFFSET 0.000000 30.592346 0.000000
							}
						}
						JOINT mixamorig:LeftEye
						{
							OFFSET 6.741500 18.382690 16.401899
							CHANNELS 3 Xrotation Yrotation Zrotation
							End Site
							{
								OFFSET 0.000000 30.592346 0.000000
							}
						}
					}
				}
				JOINT mixamorig:LeftShoulder
				{
					OFFSET 11.924900 18.230499 1.425400
					CHANNELS 3 Xrotation Yrotation Zrotation
					JOINT mixamorig:LeftArm
					{
						OFFSET 25.435989 -0.697632 -5.229300
						CHANNELS 3 Xrotation Yrotation Zrotation
						JOINT mixamorig:LeftForeArm
						{
							OFFSET 54.684776 0.000000 0.000000
							CHANNELS 3 Xrotation Yrotation Zrotation
							JOINT mixamorig:LeftHand
							{
								OFFSET 55.098175 0.000000 0.000000
								CHANNELS 3 Xrotation Yrotation Zrotation
								JOINT mixamorig:LeftHandMiddle1
								{
									OFFSET 23.369751 0.000000 0.000000
									CHANNELS 3 Xrotation Yrotation Zrotation
									JOINT mixamorig:LeftHandMiddle2
									{
										OFFSET 6.378677 0.000000 0.000000
										CHANNELS 3 Xrotation Yrotation Zrotation
										JOINT mixamorig:LeftHandMiddle3
										{
											OFFSET 6.148331 0.000000 0.000000
											CHANNELS 3 Xrotation Yrotation Zrotation
											JOINT mixamorig:LeftHandMiddle4
											{
												OFFSET 6.582504 0.000000 0.000000
												CHANNELS 3 Xrotation Yrotation Zrotation
												End Site
												{
													OFFSET -1.168900 6.395691 1.028606
												}
											}
										}
									}
								}
								JOINT mixamorig:LeftHandThumb1
								{
									OFFSET 7.235672 -3.848206 5.434273
									CHANNELS 3 Xrotation Yrotation Zrotation
									JOINT mixamorig:LeftHandThumb2
									{
										OFFSET 6.568451 -3.792297 3.792300
										CHANNELS 3 Xrotation Yrotation Zrotation
										JOINT mixamorig:LeftHandThumb3
										{
											OFFSET 6.063080 -3.500519 3.500518
											CHANNELS 3 Xrotation Yrotation Zrotation
											JOINT mixamorig:LeftHandThumb4
											{
												OFFSET 4.793182 -2.767334 2.767349
												CHANNELS 3 Xrotation Yrotation Zrotation
												End Site
												{
													OFFSET 0.101639 6.054260 1.275483
												}
											}
										}
									}
								}
								JOINT mixamorig:LeftHandIndex1
								{
									OFFSET 23.101074 -0.309540 4.992809
									CHANNELS 3 Xrotation Yrotation Zrotation
									JOINT mixamorig:LeftHandIndex2
									{
										OFFSET 6.226883 0.000000 0.000000
										CHANNELS 3 Xrotation Yrotation Zrotation
										JOINT mixamorig:LeftHandIndex3
										{
											OFFSET 6.094330 0.000000 0.000000
											CHANNELS 3 Xrotation Yrotation Zrotation
											JOINT mixamorig:LeftHandIndex4
											{
												OFFSET 5.482605 0.000000 0.000000
												CHANNELS 3 Xrotation Yrotation Zrotation
												End Site
												{
													OFFSET -1.427902 5.233032 0.797164
												}
											}
										}
									}
								}
								JOINT mixamorig:LeftHandRing1
								{
									OFFSET 22.299240 0.021149 -3.964172
									CHANNELS 3 Xrotation Yrotation Zrotation
									JOINT mixamorig:LeftHandRing2
									{
										OFFSET 6.321869 0.000000 0.000000
										CHANNELS 3 Xrotation Yrotation Zrotation
										JOINT mixamorig:LeftHandRing3
										{
											OFFSET 5.899796 0.000000 0.000000
											CHANNELS 3 Xrotation Yrotation Zrotation
											JOINT mixamorig:LeftHandRing4
											{
												OFFSET 6.517899 0.000000 0.000000
												CHANNELS 3 Xrotation Yrotation Zrotation
												End Site
												{
													OFFSET -1.637299 6.232208 0.980890
												}
											}
										}
									}
								}
								JOINT mixamorig:LeftHandPinky1
								{
									OFFSET 20.463791 -0.302338 -8.562233
									CHANNELS 3 Xrotation Yrotation Zrotation
									JOINT mixamorig:LeftHandPinky2
									{
										OFFSET 6.908646 0.000000 0.000000
										CHANNELS 3 Xrotation Yrotation Zrotation
										JOINT mixamorig:LeftHandPinky3
										{
											OFFSET 4.622849 0.000000 0.000000
											CHANNELS 3 Xrotation Yrotation Zrotation
											JOINT mixamorig:LeftHandPinky4
											{
												OFFSET 5.216080 0.000000 0.000000
												CHANNELS 3 Xrotation Yrotation Zrotation
												End Site
												{
													OFFSET -0.606308 5.116241 0.814926
												}
											}
										}
									}
								}
							}
						}
					}
				}
				JOINT mixamorig:RightShoulder
				{
					OFFSET -12.001300 18.284088 1.348900
					CHANNELS 3 Xrotation Yrotation Zrotation
					JOINT mixamorig:RightArm
					{
						OFFSET -25.308500 -0.751312 -5.164599
						CHANNELS 3 Xrotation Yrotation Zrotation
						JOINT mixamorig:RightForeArm
						{
							OFFSET -54.684429 0.000000 0.000000
							CHANNELS 3 Xrotation Yrotation Zrotation
							JOINT mixamorig:RightHand
							{
								OFFSET -55.150291 0.000000 0.000000
								CHANNELS 3 Xrotation Yrotation Zrotation
								JOINT mixamorig:RightHandMiddle1
								{
									OFFSET -23.317566 0.000000 0.000000
									CHANNELS 3 Xrotation Yrotation Zrotation
									JOINT mixamorig:RightHandMiddle2
									{
										OFFSET -6.378403 0.000000 0.000000
										CHANNELS 3 Xrotation Yrotation Zrotation
										JOINT mixamorig:RightHandMiddle3
										{
											OFFSET -6.148193 0.000000 0.000000
											CHANNELS 3 Xrotation Yrotation Zrotation
											JOINT mixamorig:RightHandMiddle4
											{
												OFFSET -6.583389 0.000000 0.000000
												CHANNELS 3 Xrotation Yrotation Zrotation
												End Site
												{
													OFFSET 1.171692 6.395905 1.029786
												}
											}
										}
									}
								}
								JOINT mixamorig:RightHandThumb1
								{
									OFFSET -7.190521 -3.860474 5.435846
									CHANNELS 3 Xrotation Yrotation Zrotation
									JOINT mixamorig:RightHandThumb2
									{
										OFFSET -6.567429 -3.791718 3.791708
										CHANNELS 3 Xrotation Yrotation Zrotation
										JOINT mixamorig:RightHandThumb3
										{
											OFFSET -6.062469 -3.500153 3.500166
											CHANNELS 3 Xrotation Yrotation Zrotation
											JOINT mixamorig:RightHandThumb4
											{
												OFFSET -4.792618 -2.767029 2.767022
												CHANNELS 3 Xrotation Yrotation Zrotation
												End Site
												{
													OFFSET -0.100327 6.053253 1.276754
												}
											}
										}
									}
								}
								JOINT mixamorig:RightHandIndex1
								{
									OFFSET -23.048981 -0.310791 4.992554
									CHANNELS 3 Xrotation Yrotation Zrotation
									JOINT mixamorig:RightHandIndex2
									{
										OFFSET -6.227539 0.000000 0.000000
										CHANNELS 3 Xrotation Yrotation Zrotation
										JOINT mixamorig:RightHandIndex3
										{
											OFFSET -6.095047 0.000000 0.000000
											CHANNELS 3 Xrotation Yrotation Zrotation
											JOINT mixamorig:RightHandIndex4
											{
												OFFSET -5.484772 0.000000 0.000000
												CHANNELS 3 Xrotation Yrotation Zrotation
												End Site
												{
													OFFSET 1.420593 5.237305 0.797056
												}
											}
										}
									}
								}
								JOINT mixamorig:RightHandRing1
								{
									OFFSET -22.246323 0.020569 -3.963762
									CHANNELS 3 Xrotation Yrotation Zrotation
									JOINT mixamorig:RightHandRing2
									{
										OFFSET -6.322128 0.000000 0.000000
										CHANNELS 3 Xrotation Yrotation Zrotation
										JOINT mixamorig:RightHandRing3
										{
											OFFSET -5.900024 0.000000 0.000000
											CHANNELS 3 Xrotation Yrotation Zrotation
											JOINT mixamorig:RightHandRing4
											{
												OFFSET -6.518356 0.000000 0.000000
												CHANNELS 3 Xrotation Yrotation Zrotation
												End Site
												{
													OFFSET 1.636398 6.232697 0.982186
												}
											}
										}
									}
								}
								JOINT mixamorig:RightHandPinky1
								{
									OFFSET -20.411011 -0.303314 -8.561701
									CHANNELS 3 Xrotation Yrotation Zrotation
									JOINT mixamorig:RightHandPinky2
									{
										OFFSET -6.907349 0.000000 0.000000
										CHANNELS 3 Xrotation Yrotation Zrotation
										JOINT mixamorig:RightHandPinky3
										{
											OFFSET -4.623840 0.000000 0.000000
											CHANNELS 3 Xrotation Yrotation Zrotation
											JOINT mixamorig:RightHandPinky4
											{
												OFFSET -5.218353 0.000000 0.000000
												CHANNELS 3 Xrotation Yrotation Zrotation
												End Site
												{
													OFFSET 0.602097 5.118835 0.816273
												}
											}
										}
									}
								}
							}
						}
					}
				}
			}
		}
	}
	JOINT mixamorig:LeftUpLeg
	{
		OFFSET 18.168400 -13.561905 -0.039000
		CHANNELS 3 Xrotation Yrotation Zrotation
		JOINT mixamorig:LeftLeg
		{
			OFFSET 0.577358 -80.825211 -3.695000
			CHANNELS 3 Xrotation Yrotation Zrotation
			JOINT mixamorig:LeftFoot
			{
				OFFSET -0.577356 -83.370262 -6.520700
				CHANNELS 3 Xrotation Yrotation Zrotation
				JOINT mixamorig:LeftToeBase
				{
					OFFSET 0.750401 -20.798306 25.135401
					CHANNELS 3 Xrotation Yrotation Zrotation
					JOINT mixamorig:LeftToe_End
					{
						OFFSET -0.000500 0.001200 19.917799
						CHANNELS 3 Xrotation Yrotation Zrotation
						End Site
						{
							OFFSET 0.000000 19.917805 0.000000
						}
					}
				}
			}
		}
	}
	JOINT mixamorig:RightUpLeg
	{
		OFFSET -18.162500 -13.585098 -0.041000
		CHANNELS 3 Xrotation Yrotation Zrotation
		JOINT mixamorig:RightLeg
		{
			OFFSET -0.595024 -80.945297 -3.631900
			CHANNELS 3 Xrotation Yrotation Zrotation
			JOINT mixamorig:RightFoot
			{
				OFFSET 0.595024 -83.218193 -6.561200
				CHANNELS 3 Xrotation Yrotation Zrotation
				JOINT mixamorig:RightToeBase
				{
					OFFSET -0.753601 -20.807106 25.115000
					CHANNELS 3 Xrotation Yrotation Zrotation
					JOINT mixamorig:RightToe_End
					{
						OFFSET 0.000299 0.001700 19.918200
						CHANNELS 3 Xrotation Yrotation Zrotation
						End Site
						{
							OFFSET 0.000000 19.918203 0.000000
						}
					}
				}
			}
		}
	}
}
MOTION
Frames: 4
Frame Time: 0.033333
7.203346 155.977264 -72.099731 -79.531932 -4.283594 -13.886789 39.502519 5.313243 7.264141 20.387242 0.413614 1.405540 20.371456 -0.288414 1.780466 9.324492 1.531814 -6.106596 13.304887 5.012427 -3.550714 -0.000002 0.000000 -0.000000 -0.000002 0.000000 -0.000000 -0.000002 0.000000 -0.000000 6.330636 -0.989568 -20.437009 -9.358941 -4.993550 -59.227760 0.000025 -45.123693 0.000016 40.253976 -10.739803 22.688201 0.177620 4.695282 -2.874127 0.711678 2.800500 -28.512124 0.198051 -1.511903 14.925350 -0.000000 0.000002 -0.000003 9.219845 6.569297 19.420960 6.851691 9.848031 -2.924587 -14.668606 -28.714774 3.548296 0.000003 -0.000000 0.000000 0.099634 -1.418084 0.354114 0.013530 0.398396 -3.890677 0.197614 -1.510243 14.908435 -0.000001 0.000000 -0.000001 0.318248 11.118908 -1.243947 1.395921 3.796786 -40.360841 0.198062 -1.511910 14.925360 0.000001 0.000002 -0.000001 3.057516 16.686738 -11.737854 1.636861 4.062652 -43.875400 0.064487 -0.867870 8.500836 -0.000001 0.000000 -0.000000 3.743650 12.939681 2.564105 1.107082 9.434614 54.559182 -0.000005 45.906521 0.000009 19.810762 8.153870 -32.942453 0.559183 -6.706906 6.891056 0.162788 -1.221771 15.177114 0.003616 0.183671 -2.255130 0.000004 0.000001 -0.000002 -7.435187 10.974094 -2.843261 3.161582 -15.203349 -9.227105 -6.496566 1.090275 -13.233962 0.000000 0.000003 0.000002 0.050300 -2.459121 0.906636 0.174815 -1.265289 15.731666 0.012881 -0.346464 4.256916 0.000001 0.000002 0.000002 2.542586 -8.930507 23.535970 0.446213 -1.991007 25.261098 0.012133 -0.336331 4.132109 -0.000001 0.000002 -0.000003 7.829792 -14.729286 35.147231 1.125687 -3.038040 40.655345 0.125058 -1.073101 13.293461 0.000002 -0.000002 -0.000001 -19.783431 11.787975 8.479448 13.815670 -1.163324 2.185012 16.570251 -1.553087 -16.025917 -2.842568 -0.000001 0.000003 0.000002 0.000000 0.000000 -89.066678 -15.263371 -4.456025 129.239555 -7.345700 -3.284707 30.063474 -1.256339 3.264855 -1.631578 0.000005 0.000003 -0.000000 0.000000 -0.000001 
7.199177 155.719406 -72.103531 -80.669220 -4.255022 -13.403114 39.172941 4.565286 7.107514 19.849981 0.333924 1.405705 19.834936 -0.345821 1.749170 10.105149 1.380387 -6.023073 15.093938 4.613044 -3.932378 -0.000001 -0.000000 0.000000 -0.000001 -0.000000 0.000000 -0.000001 -0.000000 0.000000 7.040958 -1.144798 -20.492861 -8.946782 -3.183345 -59.801612 0.000003 -45.938753 0.000001 40.599406 -9.497913 21.378806 0.177626 4.695277 -2.874118 0.711692 2.800495 -28.512123 0.198064 -1.511929 14.925343 -0.000003 0.000002 -0.000004 9.112773 6.508393 19.628907 6.851687 9.848051 -2.924587 -14.668598 -28.714795 3.548288 0.000001 0.000000 0.000001 0.099633 -1.418062 0.354127 0.013537 0.398384 -3.890682 0.197608 -1.510226 14.908447 -0.000000 -0.000000 -0.000001 0.318253 11.118918 -1.243935 1.395928 3.796792 -40.360841 0.198055 -1.511910 14.925336 -0.000001 -0.000001 0.000001 3.057523 16.686722 -11.737852 1.636856 4.062662 -43.875397 0.064503 -0.867884 8.500805 0.000005 -0.000001 0.000001 4.812096 12.500132 3.159774 0.979412 8.102833 54.506310 0.000002 46.152527 -0.000001 21.553871 8.629245 -31.722650 0.936896 -6.805716 12.344090 0.176957 -1.272882 15.828610 0.010784 0.317057 -3.895017 0.000003 0.000001 -0.000000 -7.022391 10.978908 -2.739753 4.079148 -18.488520 -9.739633 -6.979728 3.936915 -12.554689 0.000002 0.000000 -0.000001 0.058345 -2.625737 2.369337 0.213924 -1.396669 17.415331 0.004875 -0.213348 2.619883 -0.000002 0.000001 -0.000003 3.088397 -8.876497 29.319898 0.386969 -1.860389 23.498559 0.000788 -0.085607 1.050847 -0.000001 0.000001 0.000002 8.051716 -13.761731 38.982157 1.143343 -3.058420 40.987108 0.064117 -0.770942 9.507926 -0.000004 0.000001 0.000001 -18.350162 11.986755 7.887422 14.063252 -1.334604 2.263783 16.674932 -1.575187 -16.120693 -2.862946 -0.000003 0.000000 -0.000001 0.000000 0.000001 -86.554042 -14.323680 -4.178358 129.411963 -6.951820 -3.199912 29.150056 -1.214029 2.753252 -2.032257 -0.000003 0.000002 -0.000000 -0.000001 0.000000 
7.191071 155.646194 -72.135056 -81.543552 -4.145916 -13.085070 38.446360 4.020846 7.227834 19.183271 0.265916 1.457888 19.170297 -0.378053 1.768728 10.851455 1.249577 -6.080884 17.035684 4.090910 -4.232313 -0.000001 -0.000000 -0.000000 -0.000001 -0.000000 -0.000000 -0.000001 -0.000000 -0.000000 7.657100 -1.401177 -20.130439 -8.401840 -1.891491 -60.705943 0.000006 -46.099078 0.000010 40.835608 -8.427143 20.158168 0.177628 4.695285 -2.874119 0.711678 2.800493 -28.512133 0.198054 -1.511928 14.925346 0.000001 -0.000001 0.000000 8.967174 6.425155 19.911323 6.851688 9.848036 -2.924585 -14.668600 -28.714788 3.548289 0.000000 -0.000001 0.000001 0.099643 -1.418068 0.354136 0.013529 0.398389 -3.890690 0.197606 -1.510219 14.908450 -0.000000 -0.000001 0.000001 0.318257 11.118906 -1.243934 1.395923 3.796796 -40.360848 0.198053 -1.511901 14.925357 -0.000002 -0.000002 0.000003 3.057515 16.686736 -11.737855 1.636863 4.062661 -43.875380 0.064501 -0.867888 8.500808 0.000002 -0.000001 0.000003 5.921097 12.173410 3.677620 0.716086 5.929914 54.870338 -0.000019 46.561724 0.000022 23.787766 8.967061 -30.116660 1.334160 -6.887363 18.343537 0.195372 -1.336120 16.637578 0.021952 0.452167 -5.559300 0.000003 0.000000 -0.000000 -6.503898 10.896435 -2.652240 5.057135 -22.146284 -10.286425 -7.522767 6.902173 -11.816372 -0.000001 0.000001 -0.000001 0.074121 -2.813292 4.060258 0.263283 -1.545172 19.337903 0.000650 -0.078089 0.958745 -0.000000 -0.000001 -0.000001 3.656361 -8.777392 35.674802 0.330879 -1.725735 21.706293 0.003348 0.176756 -2.170417 0.000002 -0.000001 0.000002 8.186130 -12.745048 43.218261 1.168727 -3.087362 41.460669 0.021739 -0.449861 5.530959 0.000000 -0.000001 -0.000000 -17.034745 12.050480 7.415775 14.317601 -1.476901 2.358733 16.862424 -1.618856 -16.293541 -2.877078 -0.000009 -0.000002 0.000000 -0.000001 0.000000 -83.867312 -13.333049 -3.868829 129.297858 -6.524803 -3.085442 28.228410 -1.097727 2.387397 -2.379578 -0.000002 0.000000 -0.000000 0.000001 -0.000000 
7.132153 155.709290 -72.239250 -82.093587 -3.957779 -12.980704 37.336806 3.602030 7.614184 18.388712 0.187732 1.531807 18.377488 -0.414369 1.810258 11.484597 1.182896 -6.245223 18.868927 3.678522 -4.506891 0.000002 -0.000000 0.000000 0.000002 -0.000000 0.000000 0.000002 -0.000000 0.000000 8.247521 -1.363931 -19.599884 -7.408773 -1.964564 -61.378368 0.000011 -45.746432 0.000016 40.322288 -7.316179 19.104288 0.177626 4.695282 -2.874126 0.711699 2.800492 -28.512112 0.198052 -1.511922 14.925341 -0.000002 -0.000000 0.000002 8.788716 6.322372 20.257033 6.851684 9.848056 -2.924586 -14.668601 -28.714795 3.548285 0.000000 -0.000001 0.000001 0.099642 -1.418087 0.354121 0.013532 0.398390 -3.890685 0.197610 -1.510227 14.908450 0.000002 0.000001 -0.000000 0.318261 11.118903 -1.243945 1.395920 3.796810 -40.360831 0.198058 -1.511915 14.925345 0.000002 -0.000000 0.000002 3.057521 16.686729 -11.737856 1.636862 4.062666 -43.875400 0.064502 -0.867885 8.500837 -0.000005 0.000001 -0.000000 7.040309 11.611950 4.362175 0.336651 3.854184 55.170201 -0.000006 46.993061 -0.000003 26.175018 9.032317 -28.104905 1.709056 -6.944012 24.305631 0.216803 -1.405760 17.532758 0.035552 0.575029 -7.076918 0.000003 -0.000002 0.000000 -5.946592 10.725288 -2.596216 6.000999 -25.825041 -10.813236 -8.073048 9.686637 -11.090297 0.000000 -0.000000 -0.000002 0.097576 -3.003859 5.819068 0.319323 -1.696388 21.319213 0.000223 0.045254 -0.555778 0.000003 -0.000001 0.000001 4.185064 -8.642265 41.980856 0.283275 -1.601040 20.066425 0.019273 0.423628 -5.207520 0.000000 0.000001 0.000005 8.211854 -11.791685 47.446141 1.199798 -3.122128 42.034357 0.002198 -0.143268 1.759048 -0.000001 0.000001 0.000001 -16.120054 11.990409 7.197033 14.628033 -1.273026 2.490140 17.332285 -1.704705 -16.453038 -2.874567 0.000003 0.000001 -0.000000 0.000000 0.000000 -81.455538 -12.636229 -3.514777 129.073063 -6.212790 -2.955972 27.368486 -0.937619 2.085151 -2.334882 0.000004 -0.000005 -0.000000 -0.000000 0.000001 
